<?xml version="1.0" encoding="utf-8"?>
<!-- Generator: Adobe Illustrator 23.0.1, SVG Export Plug-In . SVG Version: 6.00 Build 0)  -->
<svg version="1.1" id="Layer_1" xmlns="http://www.w3.org/2000/svg" xmlns:xlink="http://www.w3.org/1999/xlink" x="0px" y="0px"
	 viewBox="0 0 208 83" style="enable-background:new 0 0 208 83;" xml:space="preserve">
<style type="text/css">
	.st0{fill:#FFFFFF;}
	.st1{fill:url(#SVGID_1_);}
	.st2{fill:#2D2D69;}
	.st3{fill:#128DE0;}
	.st4{fill:#1E87F4;}
</style>
<path class="st0" d="M72.4,57V43.5c0.7-0.4,1.2-1.1,1.2-2c0-0.8-0.5-1.6-1.2-2V25.7c1.5-0.5,2.6-1.9,2.6-3.6c0-2.1-1.7-3.8-3.8-3.8
	c-0.9,0-1.7,0.3-2.4,0.9L41.3,3.3C41,1.4,39.4,0,37.5,0S34,1.5,33.8,3.3L6.2,19.2c-0.6-0.6-1.5-0.9-2.4-0.9C1.7,18.4,0,20,0,22.1
	c0,1.7,1.1,3.1,2.7,3.6v13.7c-0.7,0.4-1.2,1.1-1.2,2c0,0.9,0.5,1.6,1.2,2V57C1.1,57.5,0,58.9,0,60.6c0,2.1,1.7,3.8,3.8,3.8
	c0.9,0,1.8-0.3,2.5-0.9l27.5,15.9c0.2,1.9,1.8,3.4,3.8,3.4c1.9,0,3.5-1.5,3.8-3.4l27.5-15.9c0.7,0.6,1.5,0.9,2.4,0.9
	c2.1,0,3.8-1.7,3.8-3.8C75,58.9,73.9,57.5,72.4,57z"/>
<linearGradient id="SVGID_1_" gradientUnits="userSpaceOnUse" x1="0" y1="42.6222" x2="75" y2="42.6222" gradientTransform="matrix(1 0 0 -1 0 84)">
	<stop  offset="0" style="stop-color:#0094FF"/>
	<stop  offset="1" style="stop-color:#0094FF"/>
</linearGradient>
<path class="st1" d="M72.4,57V43.5c0.7-0.4,1.2-1.1,1.2-2c0-0.8-0.5-1.6-1.2-2V25.7c1.5-0.5,2.6-1.9,2.6-3.6c0-2.1-1.7-3.8-3.8-3.8
	c-0.9,0-1.7,0.3-2.4,0.9L41.3,3.3C41,1.4,39.4,0,37.5,0S34,1.5,33.8,3.3L6.2,19.2c-0.6-0.6-1.5-0.9-2.4-0.9C1.7,18.4,0,20,0,22.1
	c0,1.7,1.1,3.1,2.7,3.6v13.7c-0.7,0.4-1.2,1.1-1.2,2c0,0.9,0.5,1.6,1.2,2V57C1.1,57.5,0,58.9,0,60.6c0,2.1,1.7,3.8,3.8,3.8
	c0.9,0,1.8-0.3,2.5-0.9l27.5,15.9c0.2,1.9,1.8,3.4,3.8,3.4c1.9,0,3.5-1.5,3.8-3.4l27.5-15.9c0.7,0.6,1.5,0.9,2.4,0.9
	c2.1,0,3.8-1.7,3.8-3.8C75,58.9,73.9,57.5,72.4,57z M34.3,5.7c0.1,0.1,0.1,0.2,0.2,0.3L26.3,20C26.1,20,26,20,25.8,20
	c-0.6,0-1.2,0.4-1.3,1H7.8L34.3,5.7z M7.5,21.7h17c0.1,0.3,0.2,0.5,0.4,0.7l-4.9,8.5L7.3,23.5c0.2-0.4,0.3-0.9,0.3-1.3
	C7.6,22,7.5,21.8,7.5,21.7z M7,24.1l12.7,7.3l-0.1,0.2l-9.4,1.6l-4.5-7.8C6.2,25.1,6.7,24.7,7,24.1z M5,43.3c0.6-0.4,1-1.1,1-1.9
	c0-0.8-0.4-1.5-1-1.9V25.7c1.3,2.2,5.4,9.3,5.5,9.4c0,0,0.1,0.1,0.1,0.1c0.3,0.4,0.6,0.8,1,1.2c0.2,0.2,0.4,0.4,0.7,0.6
	c0.1,0,0.1,0.1,0.1,0.1c0.7,0.5,1.5,0.9,2.3,1.1c0.3,0.1,0.6,0.2,0.9,0.2c0.1,0,0.1,0,0.2,0c0.2,0,0.4,0.1,0.6,0.1
	c0.1,0,0.1,0,0.2,0c1.3,0.2,2.6,0.1,4,0.1c1.2,0,2.4-0.1,3.5-0.1l0-2.1c0-0.3,0.3-0.5,0.6-0.3l6,4c0.2,0.1,0.2,0.4,0,0.6l-0.8,0.6
	l-0.6,0.4l-1.6,1.2l-2.8,2.1c-0.2,0.2-0.6,0-0.6-0.3l0-1.2v-0.1v-0.3V43v-0.1v-0.2v-0.1c0,0,0,0,0,0c0,0,0,0,0,0h-0.2l-0.6,0h0
	l-4.9,0.1c-0.8,0-1.6,0.1-2.4,0.3c-0.1,0-0.1,0-0.2,0c-0.1,0-0.1,0-0.2,0.1c-0.1,0-0.2,0.1-0.3,0.1c-0.1,0-0.1,0-0.1,0.1
	c-0.6,0.2-1.3,0.5-1.9,0.9c-0.1,0-0.1,0.1-0.2,0.1c-0.2,0.1-0.3,0.3-0.5,0.4c-0.4,0.4-0.8,0.9-1.2,1.3c-0.1,0.2-0.2,0.3-0.3,0.5
	c-0.1,0.1-0.2,0.2-0.2,0.3c0,0,0,0.1-0.1,0.1l-0.1,0.1l-0.2,0.4l-0.1,0.2l-0.2,0.4l0,0v0v0l-4.4,7.6L5,56.9V43.3L5,43.3z M21.8,50
	l-1.5,0.9l-0.6-1c0,0,0,0,0.1,0c0.5,0,1.1,0.1,1.6,0.1c0,0,0,0,0,0C21.6,50,21.7,50,21.8,50z M7.3,59.2l9.5-5.5l0.1,0l0.8-0.4
	c0,0-0.1,0-0.1,0c-0.2,0-0.4-0.2-0.5-0.5l-0.1,0.1l-1.4,0.8l-8.5,4.9c-0.3-0.5-0.8-0.9-1.3-1.2l0.1-0.1l0.2-0.4l4.3-7.5l1.7,0.1
	l0.4,0c0,0,0,0,0,0s0,0,0,0c0,0,0,0,0.1,0c0,0,0,0,0,0h0h0c0,0,0,0,0,0c0.1,0,0.2,0,0.3,0c0.1,0,0.2,0,0.4,0c0.4,0,0.7,0,1.1,0.1
	c0.4,0,0.8,0.1,1.2,0.1c0.4,0,0.9,0.1,1.3,0.1c0.5,0,1,0.1,1.5,0.1c0.1,0,0.2,0,0.3,0c0.1,0,0.2,0,0.3,0l0.8,1.4l-1.2,0.7h0
	l-0.4,0.3c0,0,0,0,0,0.1c0,0,0,0,0,0.1c0,0.1,0,0.1,0,0.2c0,0.1,0,0.1,0,0.2c0,0,0,0,0,0c0,0.1,0,0.1,0,0.1c0,0,0,0.1,0,0.1
	c0,0,0,0,0,0.1c0,0,0,0,0,0.1c0,0,0,0,0,0c0,0,0,0,0,0.1v0c0,0,0,0,0,0c0,0-0.1,0.1-0.1,0.1c0,0,0,0,0,0l2-1.1h0l0,0
	c0.1-0.3,0.3-0.4,0.5-0.4c0.2,0,0.3,0.1,0.4,0.3c0,0,0,0,0,0.1c0,0,0,0,0,0.1c0,0,0,0,0,0.1c0,0,0,0.1,0,0.1c0,0.1,0,0.1,0,0.2
	c0,0,0,0,0,0.1c0,0,0,0.1,0,0.1c0,0.1,0,0.1,0,0.2c0,0.1,0,0.1,0,0.2c0,0.1,0,0.2-0.1,0.3l0.2,0.3l0.6,1.1l0,0l3.3,5.8
	c-0.2,0.2-0.4,0.4-0.4,0.7H7.5c0-0.1,0-0.2,0-0.3C7.6,60.1,7.4,59.6,7.3,59.2z M34.3,77.1L7.6,61.7h16.9c0.2,0.6,0.7,1,1.3,1
	c0.2,0,0.3,0,0.5-0.1l8.2,14.2C34.4,76.9,34.4,76.9,34.3,77.1z M37.2,75.2c-0.8,0.1-1.6,0.4-2.2,1l-8.1-14.1
	c0.1-0.1,0.2-0.3,0.2-0.4h10V75.2z M27.1,60.9c-0.1-0.6-0.7-1-1.3-1c-0.1,0-0.1,0-0.2,0l-4.9-8.5l2.4-1.4c0.5,0,1.1,0.1,1.6,0.1
	c0.6,0,1.1,0.1,1.7,0.1c0.5,0,1.1,0.1,1.6,0.1c0.5,0,1,0.1,1.6,0.1c0.5,0,1,0.1,1.5,0.1c0.5,0,0.9,0.1,1.4,0.1
	c0.4,0,0.9,0.1,1.3,0.1c0.4,0,0.8,0,1.2,0.1c0.3,0,0.7,0,1,0.1c0.1,0,0.3,0,0.4,0c0.1,0,0.3,0,0.4,0c0.1,0,0.2,0,0.3,0
	c0,0,0.1,0,0.1,0v10.1L27.1,60.9L27.1,60.9z M37.2,28.7l-16.1,2.7l-0.4-0.2l4.9-8.5c0.1,0,0.1,0,0.2,0c0.6,0,1.1-0.4,1.3-1h10
	L37.2,28.7z M27.1,21c-0.1-0.2-0.1-0.4-0.3-0.5l8.1-13.9c0.6,0.6,1.4,0.9,2.2,1V21H27.1z M67.7,23.5L56,30.2l-1,0.6L54.5,30L50,22.3
	c0.2-0.2,0.3-0.4,0.4-0.6h17c0,0.1,0,0.3,0,0.4C67.4,22.6,67.5,23.1,67.7,23.5z M40.8,5.7L67.3,21H50.4c-0.1-0.6-0.7-1-1.3-1
	c-0.1,0-0.3,0-0.4,0.1L40.6,6C40.6,5.9,40.7,5.8,40.8,5.7z M40.1,6.5l8,13.9c-0.1,0.1-0.2,0.3-0.3,0.5h-9.9l0-13.4
	C38.7,7.5,39.5,7.1,40.1,6.5z M40,76.2c-0.6-0.5-1.3-0.9-2.2-1l0-13.6h10c0.1,0.2,0.2,0.4,0.3,0.5L40,76.2z M40.8,77.1
	c-0.1-0.1-0.1-0.2-0.2-0.3l8.2-14.2c0.1,0,0.3,0.1,0.4,0.1c0.6,0,1.1-0.4,1.3-1h17L40.8,77.1z M70.1,39.6c-0.6,0.4-1,1.1-1,1.9
	c0,0.8,0.4,1.5,1,1.9V57v0v0l-0.1-0.3l-5.3-9.3l-0.2-0.4v1.4l0.2,0.4l4.9,8.4c-0.5,0.3-1,0.7-1.3,1.2l-3-1.7l0,0l-0.9-0.5L64,56.1
	l-0.6-0.3l-0.3,0c0,0,0-0.1,0-0.1l0,0l-0.6-0.4c-0.1,0.2-0.3,0.4-0.5,0.5L64,57l0.2,0.1l0.7,0.4h0l2.8,1.6c-0.2,0.4-0.3,1-0.3,1.5
	c0,0.1,0,0.2,0,0.3h-17c-0.1-0.3-0.2-0.5-0.4-0.7l2.8-4.9c-0.1-0.1-0.2-0.3-0.2-0.4c0-0.1-0.1-0.2-0.1-0.3l0-0.1l-0.6,1
	c0.1,0.2,0.1,0.4,0.1,0.6l-0.4,0l-2.1,3.7c-0.1,0-0.2,0-0.3,0c-0.6,0-1.2,0.4-1.3,1h-9.9l0-10.1v-8.9l0.9,0.5l0.7,0.4V42l-0.7-0.4
	l-0.5-0.3l0.5-0.3l0.7-0.4v-0.8l-0.7,0.4l-0.9,0.5V28.8l0-7.1h10c0.2,0.6,0.7,1,1.3,1c0.1,0,0.2,0,0.2,0l3.7,6.5l0.8,1.4l0.4,0.7v0
	l-0.6,0.3L53,32l-3.8,2.2l0,0c0.2,0,0.3,0,0.5,0c0.3,0,0.6,0,0.9,0l0,0l2.4-1.4l1.1-0.6l0.2-0.1l0.4-0.2l0.4,0.8l1,1.7h0.7H57
	l-1.1-1.9l-0.5-0.9l1.1-0.6L68,24.1c0.3,0.5,0.8,1,1.3,1.3L63,36.3l-0.1,0.2c0.1,0.2,0.2,0.4,0.3,0.6c0,0.1,0.1,0.1,0.1,0.2l0.1-0.2
	L70,25.7c0,0,0,0,0.1,0V39.6L70.1,39.6z"/>
<path class="st2" d="M61.4,48.2l-0.3,4.8c0,0.5-0.3,1-0.8,1.2c-0.1,0.1-0.3,0.2-0.5,0.2c-0.1,0-0.3,0.1-0.5,0.1
	c-0.7,0.1-1.9,0.1-2.3,0.1c-0.7,0-1.4,0-2-0.4c-0.3-0.2-0.5-0.4-0.7-0.6c0,0,0-0.1-0.1-0.1c0,0,0,0,0-0.1c0,0,0,0,0-0.1
	c0,0,0,0,0-0.1c0-0.1-0.1-0.1-0.1-0.2c0,0,0-0.1-0.1-0.1c0,0,0-0.1,0-0.1c0,0,0-0.1,0-0.1c0,0,0-0.1,0-0.1c0-0.1,0-0.2,0-0.3
	l-0.2-3.2l-0.1-1c0-0.5,0.3-0.9,0.8-0.9l2.1,0h0.8l3,0C61,47.4,61.4,47.8,61.4,48.2z"/>
<path class="st2" d="M63.8,44.5c-0.1,0.3-0.3,0.5-0.6,0.5h-0.1l-0.8,0l-3.4,0L58,45l-9.3,0.1c-0.7,0-1.3-0.5-1.3-1.2v-4.4
	c0-0.4,0.4-0.6,0.8-0.6l0.3,0.1c0.3,0.1,0.6,0.1,1,0.1h12.9c0.1,0,0.2,0.1,0.2,0.2l1.2,4.9l0,0.1C63.8,44.3,63.8,44.4,63.8,44.5z"/>
<path class="st2" d="M45.9,39.6v4.7c0,0.4-0.4,0.8-0.8,0.7l-1.1-0.3l-0.3-0.1c-0.5-0.1-0.9-0.4-1.2-0.8C42.2,43.5,42,43,42,42.5
	v-2.9c0-0.4,0.3-0.8,0.8-0.8h2.3C45.6,38.9,45.9,39.2,45.9,39.6z"/>
<path class="st2" d="M65,53.6C65,53.6,65,53.5,65,53.6c0-0.1,0-0.1,0-0.1c0,0,0,0,0-0.1c0,0,0-0.1-0.1-0.1v0c0,0,0,0,0,0
	c0,0,0-0.1,0-0.1c0,0,0-0.1-0.1-0.1c0,0,0,0-0.1-0.1c0,0,0,0-0.1-0.1s-0.1,0-0.1-0.1c0,0,0,0-0.1,0c0,0,0,0,0,0s0,0,0,0s0,0-0.1,0
	c0,0-0.1,0-0.1,0l-0.3-0.1c-0.1,0-0.2-0.1-0.2-0.2v-0.8c0,0,0,0,0,0s0,0,0,0c0,0,0,0,0,0c0,0,0,0,0,0c0,0,0,0,0,0c0,0,0,0,0,0
	c0,0,0,0,0,0c0,0,0-0.1-0.1-0.1c0,0,0,0,0,0c0,0,0,0,0,0c0,0,0,0,0,0c0,0,0,0-0.1,0h0c0,0,0,0,0,0c0,0,0,0,0,0v0c0,0,0,0,0,0.1v0
	c0,0,0,0.1,0,0.1c0,0,0,0.1,0,0.1c0,0.1,0,0.2-0.1,0.3v0c-0.1,0.2-0.1,0.5-0.2,0.8c0,0.2-0.1,0.3-0.1,0.5c-0.1,0.2-0.1,0.4-0.1,0.6
	c-0.1,0.4-0.1,0.6-0.2,0.8v0c0,0,0,0,0,0c-0.1,0.3-0.2,0.6-0.3,0.8c-0.1,0.2-0.3,0.4-0.5,0.5c-0.4,0.4-1,0.6-1.7,0.6l-1.3,0
	l-3.6,0.1c-1.1,0-2.1-0.5-2.6-1.3c-0.1-0.1-0.2-0.3-0.2-0.4c0-0.1-0.1-0.2-0.1-0.3l0-0.1l-1-2.7l-0.2-0.5c0-0.1-0.2-0.2-0.3-0.2
	h-3.3l-0.7,0l-6.2-0.3h-2.1c-0.1,0-0.1,0-0.1,0c-0.1,0-0.3,0-0.4,0c-0.1,0-0.2,0-0.3,0c0,0,0,0-0.1,0c-0.1,0-0.2,0-0.3,0
	c-0.1,0-0.3,0-0.4,0c-0.1,0-0.3,0-0.4,0c-0.3,0-0.7,0-1-0.1c-0.4,0-0.8,0-1.2-0.1c-0.4,0-0.9-0.1-1.3-0.1c-0.5,0-1-0.1-1.5-0.1
	c-0.5,0-1-0.1-1.5-0.1c-0.5,0-1.1-0.1-1.6-0.1c-0.6,0-1.1-0.1-1.7-0.1c-0.6,0-1.1-0.1-1.7-0.1c-0.6,0-1.2-0.1-1.7-0.1
	c-0.1,0-0.2,0-0.3,0c-0.4,0-0.9-0.1-1.3-0.1c0,0-0.1,0-0.1,0c-0.6,0-1.1-0.1-1.7-0.1c-0.1,0-0.2,0-0.3,0c-0.3,0-0.6,0-0.8-0.1
	c-0.1,0-0.3,0-0.4,0c-0.5,0-1-0.1-1.5-0.1c-0.5,0-0.9-0.1-1.4-0.1c-0.4,0-0.8-0.1-1.3-0.1c-0.4,0-0.7,0-1.1-0.1c-0.1,0-0.3,0-0.4,0
	c-0.1,0-0.2,0-0.3,0c0,0,0,0,0,0h0c0,0,0,0,0,0v2.4c0,0.3,0.2,0.5,0.5,0.5l1,0.1c0.1,0.7,0.5,1.2,1,1.2c0,0,0,0,0.1,0h0.8
	c0.3,0,0.6-0.2,0.8-0.6c0.1,0.3,0.2,0.4,0.3,0.6c0.2,0.2,0.4,0.4,0.6,0.4c0,0,0,0,0.1,0h0.9c0.3,0,0.6-0.2,0.8-0.6
	c0.2,0.6,0.6,1.1,1.1,1.1c0,0,0,0,0.1,0h1c0.1,0,0.2,0,0.3-0.1c0.2-0.1,0.4-0.3,0.5-0.5c0.1-0.2,0.2-0.4,0.3-0.7l8.3,0.8
	c0,0,0,0.1,0,0.1c0,1.5,0.7,2.7,1.7,2.7c0,0,0.1,0,0.1,0h1.3c0.5,0,0.9-0.3,1.2-0.9l2.1,0.2l0.7,0.1l2.2,0.2c0.2,1.5,1,2.6,2,2.6
	c0,0,0.1,0,0.1,0H44c0.5,0,1-0.3,1.4-0.9c0,0,0,0,0-0.1c0.1,0.1,0.2,0.2,0.4,0.2c0,0,1.9,0.1,1.9,0.1c0,0,0.1,0,0.1,0
	c0.1,0,0.2,0,0.2,0h0.2h0.1l2.2-0.1l0.8,0l3.1-0.1c0.2-0.2,0.5-0.3,1.2-0.3l3.9-0.1c0.1,0.1,0.1,0.2,0.2,0.3
	c0.3,0.4,0.8,0.7,1.2,0.7c0,0,0.1,0,0.1,0h1.6c0.5,0,1-0.3,1.3-0.9c0,0,0,0,0,0l0.6,0c0.1,0,0.3-0.1,0.4-0.2c0,0,0,0,0,0
	c0.1-0.1,0.1-0.2,0.1-0.4v-3.5C65,53.6,65,53.6,65,53.6z M15.3,52.1c0,0,0,0.1,0,0.1c0,0,0,0.1,0,0.1c0,0,0,0.1,0,0.1c0,0,0,0,0,0.1
	c0,0,0,0.1,0,0.1c0,0,0,0.1,0,0.1c-0.1,0.2-0.3,0.3-0.4,0.3c-0.3,0-0.6-0.4-0.6-1c0-0.5,0.3-1,0.6-1c0,0,0,0,0.1,0h0c0,0,0,0,0,0
	c0,0,0,0,0.1,0c0,0,0,0,0.1,0c0,0,0,0,0.1,0.1l0,0c0,0,0.1,0.1,0.1,0.1c0,0,0,0,0,0c0,0,0,0,0,0.1s0,0.1,0,0.1c0,0,0,0.1,0,0.1
	c0,0,0,0,0,0.1c0,0,0,0.1,0,0.1c0,0,0,0.1,0,0.1c0,0,0,0.1,0,0.1c0,0.1,0,0.1,0,0.2C15.3,52,15.3,52,15.3,52.1z M18.1,52.4
	c0,0.1,0,0.1,0,0.2c0,0,0,0,0,0c0,0.1,0,0.1,0,0.1c0,0,0,0.1,0,0.1c0,0,0,0,0,0.1c0,0,0,0,0,0.1c0,0,0,0,0,0c0,0,0,0,0,0
	c0,0,0,0,0,0c0,0,0,0,0,0c0,0,0,0,0,0c0,0-0.1,0.1-0.1,0.1c0,0,0,0,0,0c0,0-0.1,0.1-0.1,0.1c0,0,0,0,0,0c0,0-0.1,0-0.1,0
	c-0.2,0-0.4-0.2-0.5-0.5c-0.1-0.2-0.1-0.3-0.1-0.6c0-0.6,0.3-1,0.6-1c0.2,0,0.4,0.2,0.5,0.4c0,0,0,0,0,0.1c0,0,0,0.1,0,0.1
	c0,0.1,0,0.1,0,0.2c0,0,0,0,0,0.1c0,0,0,0.1,0,0.1s0,0.1,0,0.1v0.1c0,0,0,0,0,0.1C18.1,52.3,18.1,52.3,18.1,52.4z M20.8,52.8
	c0,0.1,0,0.2-0.1,0.3c0,0.1,0,0.1-0.1,0.2c0,0,0,0.1,0,0.1c-0.1,0.2-0.3,0.3-0.4,0.3c-0.3,0-0.6-0.5-0.6-1c0-0.2,0.1-0.4,0.1-0.6
	c0.1-0.3,0.3-0.4,0.5-0.4c0.2,0,0.3,0.1,0.4,0.3c0,0,0,0,0,0.1c0,0,0,0,0,0.1c0,0,0,0,0,0.1c0,0,0,0.1,0,0.1c0,0.1,0,0.1,0,0.2
	c0,0,0,0,0,0.1c0,0,0,0.1,0,0.1c0,0.1,0,0.1,0,0.2C20.8,52.7,20.9,52.7,20.8,52.8z M33.2,54.3c0,0.1,0,0.1,0,0.1c0,0,0,0.1,0,0.1
	c0,0,0,0,0,0.1c0,0,0,0.1,0,0.1c0,0,0,0.1,0,0.1c0,0,0,0.1,0,0.1c0,0,0,0.1,0,0.1c0,0,0,0.1,0,0.1c-0.2,0.4-0.4,0.6-0.7,0.6
	c-0.5,0-0.9-0.7-0.9-1.5c0-0.8,0.4-1.5,0.9-1.5c0.3,0,0.6,0.3,0.7,0.6c0,0,0,0.1,0,0.1c0,0,0,0.1,0,0.1c0,0,0,0,0,0.1
	c0,0,0,0.1,0,0.1s0,0.1,0,0.1c0,0,0,0,0,0.1c0,0,0,0.1,0,0.1c0,0,0,0.1,0,0.1c0,0.1,0,0.1,0,0.2C33.2,54.2,33.2,54.2,33.2,54.3z
	 M43.1,55.8c0,0,0,0.1,0,0.1s0,0.1,0,0.1c0,0.1,0,0.1,0,0.1c0,0,0,0,0,0.1c0,0.1,0,0.1,0,0.1c0,0.1,0,0.1,0,0.1c0,0,0,0.1,0,0.1
	c0,0,0,0,0,0.1c0,0,0,0.1,0,0.1c0,0,0,0,0,0.1c0,0,0,0.1-0.1,0.1c0,0,0,0,0,0.1c-0.2,0.4-0.5,0.6-0.8,0.6c-0.6,0-1.1-0.9-1.1-1.9
	c0-1.1,0.5-1.9,1.1-1.9c0.4,0,0.7,0.3,0.9,0.8c0,0,0,0,0,0.1c0,0,0,0.1,0,0.1c0,0,0,0,0,0.1c0,0,0,0.1,0,0.1c0,0.1,0,0.1,0,0.1
	c0,0.1,0,0.1,0,0.1c0,0,0,0,0,0.1c0,0.1,0,0.1,0,0.1c0,0,0,0.1,0,0.1s0,0.1,0,0.1c0,0.1,0,0.1,0,0.2C43.2,55.6,43.2,55.7,43.1,55.8z
	 M51.6,56.3l-1.9,0.1c-0.6,0-1.2-0.4-1.2-1l-0.1-1c0-0.2,0.1-0.3,0.3-0.3l0.9,0c1.1,0,2.1,0.8,2.4,1.7C52,55.8,52,56,52,56.3H51.6z
	 M64.6,55c0,0.4-0.3,0.8-0.8,0.8l-0.4,0l-0.3,0c0,0,0-0.1,0-0.1c0-0.3,0.1-0.9,0.1-0.9c0.1-0.4,0.4-0.8,0.9-0.8h0.1
	c0.2,0,0.3,0.1,0.3,0.3C64.6,54.6,64.6,55,64.6,55z"/>
<path class="st3" d="M54.9,32.7c0.7,0,1.3-0.6,1.3-1.3c0-0.7-0.6-1.3-1.3-1.3c-0.7,0-1.3,0.6-1.3,1.3C53.5,32.1,54.1,32.7,54.9,32.7
	z"/>
<path class="st4" d="M20.3,32.7c0.7,0,1.3-0.6,1.3-1.3c0-0.7-0.6-1.3-1.3-1.3c-0.7,0-1.3,0.6-1.3,1.3C19,32.1,19.6,32.7,20.3,32.7z"
	/>
<path class="st3" d="M54.3,30v4.3c-1.3,0-2.6-0.1-3.7-0.1c-0.3,0-1.2,0-1.4,0c-0.9,0-1.6,0-2,0c-0.2,0-0.4,0-0.4,0l-4.4,0.3
	l-2.1,0.1c-0.1,0-0.3,0.1-0.4,0.1c-0.1,0.1-0.3,0.2-0.4,0.3c-0.1,0.1-0.1,0.3-0.1,0.5v15.3l0.5,0h-1.2c-0.1,0-0.1,0-0.1,0
	c-0.1,0-0.3,0-0.4,0c-0.1,0-0.2,0-0.3,0c0,0,0,0-0.1,0V28.6h0l15.2,0.5h0l0.4,0C53.9,29.2,54.3,29.5,54.3,30z"/>
<g>
	<path class="st0" d="M89.8,37.3V44c0,2.3,1.9,4.2,4.2,4.2h11v-3.1H94c-0.6,0-1.1-0.5-1.1-1.1v-2.5h9.5v-3.1h-9.5v-1.1
		c0-0.6,0.5-1.1,1.1-1.1h11V33H94C91.7,33,89.8,34.9,89.8,37.3z"/>
	<polygon class="st0" points="115.6,41.7 111.2,33 107.7,33 115.6,48.6 122,36 123.5,33 120,33 	"/>
	<path class="st0" d="M133.3,33c-4.2,0-7.6,3.4-7.6,7.6s3.4,7.6,7.6,7.6c4.2,0,7.6-3.4,7.6-7.6S137.5,33,133.3,33z M137.8,40.6
		c0,2.5-2,4.5-4.5,4.5s-4.5-2-4.5-4.5c0-2.5,2-4.5,4.5-4.5S137.8,38.2,137.8,40.6z"/>
	<path class="st0" d="M147.2,43.6V33.1h-3.1v10.3c0,0.8,0.2,1.5,0.5,2.2c0.5,1,1.3,1.8,2.2,2.3c0.7,0.3,1.4,0.5,2.2,0.5h7.7v-3.1
		l-7.9,0C148,45,147.3,44.4,147.2,43.6z"/>
	<path class="st0" d="M165.9,33c-4.2,0-7.6,3.4-7.6,7.6s3.4,7.6,7.6,7.6c4.2,0,7.6-3.4,7.6-7.6S170,33,165.9,33z M170.3,40.6
		c0,2.5-2,4.5-4.5,4.5s-4.5-2-4.5-4.5c0-2.5,2-4.5,4.5-4.5S170.3,38.2,170.3,40.6z"/>
	<polygon class="st0" points="173.8,48.3 177.3,48.3 181.7,39.6 186.1,48.3 189.6,48.3 181.7,32.7 	"/>
	<path class="st0" d="M199.9,33.1l-7.6,0v15.2h7.6c2,0,3.9-0.8,5.3-2.2c0.2-0.2,0.3-0.3,0.4-0.5c1.2-1.4,1.8-3.1,1.8-4.9
		C207.5,36.5,204.1,33.1,199.9,33.1z M204.4,40.7c0,2.5-2,4.5-4.5,4.5h-4.5v-8.9h4.5C202.4,36.2,204.4,38.2,204.4,40.7z"/>
</g>
</svg>
